<svg xmlns="http://www.w3.org/2000/svg" xmlns:xlink="http://www.w3.org/1999/xlink" width="62.065" height="76.207" viewBox="0 0 62.065 76.207">
  <defs>
    <filter id="Shadow_Border" x="0" y="0" width="62.065" height="76.207" filterUnits="userSpaceOnUse">
      <feOffset dx="3" dy="3" input="SourceAlpha"/>
      <feGaussianBlur result="blur"/>
      <feFlood flood-color="#181854"/>
      <feComposite operator="in" in2="blur"/>
      <feComposite in="SourceGraphic"/>
    </filter>
  </defs>
  <g id="Logo_Card" data-name="Logo Card" transform="matrix(0.966, -0.259, 0.259, 0.966, -82.862, -112.401)">
    <g transform="matrix(0.97, 0.26, -0.26, 0.97, 50.95, 130.02)" filter="url(#Shadow_Border)">
      <g id="Shadow_Border-2" data-name="Shadow/Border" transform="matrix(0.97, -0.26, 0.26, 0.97, 2.45, 12.8)" fill="#fff" stroke="#181854" stroke-width="2">
        <rect width="40" height="60" rx="4" stroke="none"/>
        <rect x="-1" y="-1" width="42" height="62" rx="5" fill="none"/>
      </g>
    </g>
    <g id="Card" transform="translate(50 143.017)" fill="#fff" stroke="#fff" stroke-width="4">
      <rect width="40" height="60" rx="4" stroke="none"/>
      <rect x="2" y="2" width="36" height="56" rx="2" fill="none"/>
    </g>
    <rect id="Card_Inner" data-name="Card Inner" width="32" height="52" rx="2" transform="translate(54 147)" fill="#181854"/>
    <path id="Card_Inner-2" data-name="Card Inner" d="M2,0H16a0,0,0,0,1,0,0V26a0,0,0,0,1,0,0H0a0,0,0,0,1,0,0V2A2,2,0,0,1,2,0Z" transform="translate(54 147)" fill="#c83636"/>
    <path id="Card_Inner-3" data-name="Card Inner" d="M0,0H14a2,2,0,0,1,2,2V26a0,0,0,0,1,0,0H0a0,0,0,0,1,0,0V0A0,0,0,0,1,0,0Z" transform="translate(70 147)" fill="#166aca"/>
    <path id="Card_Inner-4" data-name="Card Inner" d="M0,0H16a0,0,0,0,1,0,0V26a0,0,0,0,1,0,0H2a2,2,0,0,1-2-2V0A0,0,0,0,1,0,0Z" transform="translate(54 173)" fill="#eec719"/>
    <path id="Card_Inner-5" data-name="Card Inner" d="M0,0H16a0,0,0,0,1,0,0V24a2,2,0,0,1-2,2H0a0,0,0,0,1,0,0V0A0,0,0,0,1,0,0Z" transform="translate(70 173)" fill="#20860e"/>
  </g>
</svg>
