<svg xmlns="http://www.w3.org/2000/svg" width="20.526" height="28.441" viewBox="0 0 20.526 28.441">
  <g id="Continue" transform="translate(-471 -1449.6)">
    <path id="Polygon_10" data-name="Polygon 10" d="M6.156,1.326a1,1,0,0,1,1.687,0l5.178,8.137A1,1,0,0,1,12.178,11H1.822A1,1,0,0,1,.978,9.463Z" transform="translate(484.526 1449.6) rotate(60)" fill="#fff"/>
    <path id="Subtraction_7" data-name="Subtraction 7" d="M2.678,23.041l0,0A13.389,13.389,0,0,1,3.661,5.808,12.171,12.171,0,0,1,11,2.092V7.614A14.425,14.425,0,0,0,6.791,10.8,15.9,15.9,0,0,0,2.678,23.037Z" transform="translate(471 1455)" fill="#fff"/>
  </g>
</svg>
