<svg xmlns="http://www.w3.org/2000/svg" width="19" height="25" viewBox="0 0 19 25">
  <g id="Draw_Stacking" data-name="Draw Stacking" transform="translate(-499 -1455)">
    <path id="Card_Bottom_Subtracted_" data-name="Card Bottom (Subtracted)" d="M17,25H8a2,2,0,0,1-2-2V20h5a4,4,0,0,0,4-4V7h2a2,2,0,0,1,2,2V23A2,2,0,0,1,17,25Z" transform="translate(499 1455)" fill="#fff"/>
    <path id="Card_Top_Subtracted_" data-name="Card Top (Subtracted)" d="M11,18H2a2,2,0,0,1-2-2V2A2,2,0,0,1,2,0h9a2,2,0,0,1,2,2V16A2,2,0,0,1,11,18ZM8.873,7.706a.355.355,0,0,1,.319.122.511.511,0,0,1,.081.291.719.719,0,0,1-.214.454,4.673,4.673,0,0,1-.64.578c-.311.241-.671.513-1.071.808l-.406.385a.352.352,0,0,0-.151.2.864.864,0,0,0-.024.16v.609a.177.177,0,0,0,.053.13.173.173,0,0,0,.129.052h3.815a.18.18,0,0,0,.183-.182v-.882a.191.191,0,0,0-.053-.133.173.173,0,0,0-.13-.056H9.125l.343-.336a7.624,7.624,0,0,0,.728-.585,2.273,2.273,0,0,0,.476-.6,1.42,1.42,0,0,0,.168-.679A1.4,1.4,0,0,0,10.6,7.23,1.542,1.542,0,0,0,9.923,6.7a2.688,2.688,0,0,0-1.057-.189,2.55,2.55,0,0,0-.809.122,1.857,1.857,0,0,0-.634.354,1.7,1.7,0,0,0-.416.536,1.566,1.566,0,0,0-.158.675.155.155,0,0,0,.041.109A.145.145,0,0,0,7,8.349H8.1a.357.357,0,0,0,.161-.035.194.194,0,0,0,.1-.126,1.26,1.26,0,0,1,.08-.217.492.492,0,0,1,.157-.189A.466.466,0,0,1,8.873,7.706ZM2,8.249v1.5h1.25V11h1.5V9.75H6v-1.5H4.751V7h-1.5v1.25Z" transform="translate(499 1455)" fill="#fff"/>
  </g>
</svg>
