<svg xmlns="http://www.w3.org/2000/svg" width="27" height="27" viewBox="0 0 27 27">
  <g id="Share" transform="translate(-670 -1453)">
    <path id="Subtraction_4" data-name="Subtraction 4" d="M23,18H4a4,4,0,0,1-4-4V6A4,4,0,0,1,4,2H9V5.352H5a2,2,0,0,0-2,2v5.3a2,2,0,0,0,2,2H22a2,2,0,0,0,2-2v-5.3a2,2,0,0,0-2-2H18V2h5a4,4,0,0,1,4,4v8A4,4,0,0,1,23,18Z" transform="translate(670 1462)" fill="#fff"/>
    <rect id="Rectangle_28" data-name="Rectangle 28" width="3" height="12" rx="1" transform="translate(682 1460)" fill="#fff"/>
    <path id="Polygon_9" data-name="Polygon 9" d="M5.724.955a1,1,0,0,1,1.552,0l4.4,5.414A1,1,0,0,1,10.9,8H2.1a1,1,0,0,1-.776-1.631Z" transform="translate(677 1453)" fill="#fff"/>
  </g>
</svg>
